<?xml version="1.0" encoding="UTF-8" standalone="no"?>
<!-- Generator: Adobe Illustrator 27.0.0, SVG Export Plug-In . SVG Version: 6.00 Build 0)  -->

<svg
   version="1.1"
   id="Layer_1"
   x="0px"
   y="0px"
   viewBox="0 0 369.51187 353.06943"
   xml:space="preserve"
   width="369.51187"
   height="353.06943"
   xmlns="http://www.w3.org/2000/svg"
   xmlns:svg="http://www.w3.org/2000/svg"><defs
   id="defs1" />
<style
   type="text/css"
   id="style1">
	.st0{fill:#333333;}
</style>
<path
   id="_x32_5"
   class="st0"
   d="m 200.38593,11.355 32.35,99.56 c 2.2,6.77 8.51,11.36 15.63,11.36 h 104.68 c 15.92,0 22.54,20.37 9.66,29.73 l -84.69,61.53 c -5.76,4.19 -8.17,11.6 -5.97,18.38 l 32.35,99.56 c 4.92,15.14 -12.41,27.73 -25.29,18.38 l -84.69,-61.53 c -5.76,-4.19 -13.56,-4.19 -19.32,0 l -84.689995,61.53 c -12.88,9.36 -30.21,-3.23 -25.29,-18.38 l 32.35,-99.56 c 2.2,-6.77 -0.21,-14.19 -5.97,-18.38 L 6.8059349,152.005 c -12.88,-9.36 -6.26000002,-29.73 9.6600001,-29.73 H 121.14593 c 7.12,0 13.43,-4.58 15.63,-11.36 l 32.35,-99.56 c 4.92,-15.14 26.34,-15.14 31.26,0 z"
   style="fill:#2f9d97;fill-opacity:1" />
</svg>
